<svg width="32" height="32" viewBox="0 0 32 32" fill="none" xmlns="http://www.w3.org/2000/svg">
<g id="eye 1" clip-path="url(#clip0_22_3)">
<g id="Group">
<g id="Group_2">
<g id="Group_3">
<path id="Vector" d="M16 11.6364C13.5927 11.6364 11.6364 13.5928 11.6364 16C11.6364 18.4073 13.5927 20.3637 16 20.3637C18.4073 20.3637 20.3637 18.4073 20.3637 16C20.3637 13.5928 18.4072 11.6364 16 11.6364Z" fill="black"/>
<path id="Vector_2" d="M16 5.09094C8.72728 5.09094 2.51639 9.61454 0 16C2.51639 22.3855 8.72728 26.9091 16 26.9091C23.28 26.9091 29.4837 22.3855 32.0001 16C29.4837 9.61454 23.28 5.09094 16 5.09094ZM16 23.2727C11.9855 23.2727 8.72728 20.0145 8.72728 16C8.72728 11.9854 11.9855 8.72729 16 8.72729C20.0146 8.72729 23.2728 11.9855 23.2728 16C23.2728 20.0146 20.0146 23.2727 16 23.2727Z" fill="black"/>
</g>
</g>
</g>
</g>
<defs>
<clipPath id="clip0_22_3">
<rect width="32" height="32" fill="white"/>
</clipPath>
</defs>
</svg>
