<svg width="32" height="32" viewBox="0 0 32 32" fill="none" xmlns="http://www.w3.org/2000/svg">
<g id="avatar_user 1" clip-path="url(#clip0_22_29)">
<path id="Vector" d="M16 15.6498C19.5578 15.6498 22.4423 12.1464 22.4423 7.82479C22.4423 3.50305 21.4953 -0.000305176 16 -0.000305176C10.5047 -0.000305176 9.55746 3.50305 9.55746 7.82479C9.55746 12.1464 12.4419 15.6498 16 15.6498Z" fill="black"/>
<path id="Vector_2" d="M3.83196 27.5977C3.82928 27.5235 3.83062 27.3342 3.83196 27.5977V27.5977Z" fill="black"/>
<path id="Vector_3" d="M28.1673 27.8034C28.1688 27.303 28.1716 27.7313 28.1673 27.8034V27.8034Z" fill="black"/>
<path id="Vector_4" d="M28.1545 27.2823C28.0352 19.7539 27.052 17.6091 19.528 16.2505C19.528 16.2505 18.4689 17.6001 16.0003 17.6001C13.5318 17.6001 12.4725 16.2505 12.4725 16.2505C5.03066 17.5936 3.98764 19.707 3.8505 27.0373C3.83925 27.6358 3.83404 27.6673 3.83203 27.5978C3.83249 27.728 3.83304 27.9688 3.83304 28.3887C3.83304 28.3887 5.62431 31.9998 16.0003 31.9998C26.3766 31.9998 28.1677 28.3887 28.1677 28.3887C28.1677 28.1189 28.1678 27.9313 28.1681 27.8037C28.1661 27.8467 28.1621 27.7634 28.1545 27.2818V27.2823Z" fill="black"/>
</g>
<defs>
<clipPath id="clip0_22_29">
<rect width="32" height="32" fill="white"/>
</clipPath>
</defs>
</svg>
